<svg xmlns="http://www.w3.org/2000/svg" width="276.15" height="46.64" viewBox="0 0 276.15 46.64"><defs><style>.a{fill:#060606;}</style></defs><path class="a" d="M-117.4-3.69a3.087,3.087,0,0,1,.045.4q.015.255.015.315a1.511,1.511,0,0,1-.63,1.455,5.9,5.9,0,0,1-2.19.465V0h9.75V-1.05a4.035,4.035,0,0,1-1.785-.39,1.758,1.758,0,0,1-.675-1.41l-1.86-14.97a2.118,2.118,0,0,1,.54-1.665,3.338,3.338,0,0,1,1.98-.525v-1.05h-6.69a3.552,3.552,0,0,1-.165.915q-.135.405-.315.885l-4.56,13.11-4.89-13.08q-.18-.48-.315-.9a3.755,3.755,0,0,1-.165-.93h-6.78v1.05a3.4,3.4,0,0,1,2.01.525,2.118,2.118,0,0,1,.54,1.665L-135.4-2.85a1.817,1.817,0,0,1-.66,1.38,3.772,3.772,0,0,1-1.83.42V0h6.93V-1.05a5.93,5.93,0,0,1-2.235-.465,1.525,1.525,0,0,1-.615-1.455q0-.06.015-.315a3.085,3.085,0,0,1,.045-.4l1.53-12.42L-126.165,0h1.5l5.76-16.11Zm14.34,1.59a2.039,2.039,0,0,1-1.755-.75,3.143,3.143,0,0,1-.555-1.92,2.728,2.728,0,0,1,.555-1.875,3.81,3.81,0,0,1,1.485-.975l2.58-1.05v5.61a6.518,6.518,0,0,1-1.14.72A2.718,2.718,0,0,1-103.065-2.1Zm6.45-9.18a4.414,4.414,0,0,0-1.53-3.765,7.219,7.219,0,0,0-4.41-1.155,8.47,8.47,0,0,0-4.2.96,3.06,3.06,0,0,0-1.71,2.82,1.929,1.929,0,0,0,.36,1.215,2.029,2.029,0,0,0,.96.675l2.49-.33a8.248,8.248,0,0,1-.18-.945,7.145,7.145,0,0,1-.06-.915,3.254,3.254,0,0,1,.465-1.8,1.7,1.7,0,0,1,1.545-.72,1.751,1.751,0,0,1,1.65.825,4.165,4.165,0,0,1,.48,2.115v2.55l-4.53,1.65a10.68,10.68,0,0,0-2.9,1.59,3.447,3.447,0,0,0-1.215,2.88A3.661,3.661,0,0,0-108.27-.8,4.15,4.15,0,0,0-105.345.24a4.716,4.716,0,0,0,2.79-.825,8.707,8.707,0,0,0,1.89-1.755A3.212,3.212,0,0,0-99.66-.405,2.9,2.9,0,0,0-97.665.3a4.262,4.262,0,0,0,1.9-.42,4.863,4.863,0,0,0,1.515-1.17l-.18-.66a3.223,3.223,0,0,1-.555.21,2.336,2.336,0,0,1-.645.09.778.778,0,0,1-.78-.465,2.979,2.979,0,0,1-.21-1.215Zm9.12,2.76L-81.225,0h4.44V-.69l-7.08-9.42,3.99-3.69a3.638,3.638,0,0,1,1.08-.735,6.76,6.76,0,0,1,1.35-.375v-.99h-6.39v.99a7.86,7.86,0,0,1,1.485.27.568.568,0,0,1,.435.57.976.976,0,0,1-.21.585,4.476,4.476,0,0,1-.66.675Zm-4.44,6.21a1.078,1.078,0,0,1-.42,1.02,3.536,3.536,0,0,1-1.44.3V0h7.89V-.99a3.536,3.536,0,0,1-1.44-.3,1.078,1.078,0,0,1-.42-1.02V-23.49h-.66l-5.31,1.44v.63l1.8.93Zm22.17.21a2.039,2.039,0,0,1-1.755-.75,3.143,3.143,0,0,1-.555-1.92,2.728,2.728,0,0,1,.555-1.875,3.81,3.81,0,0,1,1.485-.975l2.58-1.05v5.61a6.517,6.517,0,0,1-1.14.72A2.718,2.718,0,0,1-69.765-2.1Zm6.45-9.18a4.414,4.414,0,0,0-1.53-3.765,7.219,7.219,0,0,0-4.41-1.155,8.47,8.47,0,0,0-4.2.96,3.06,3.06,0,0,0-1.71,2.82,1.929,1.929,0,0,0,.36,1.215,2.029,2.029,0,0,0,.96.675l2.49-.33a8.248,8.248,0,0,1-.18-.945,7.145,7.145,0,0,1-.06-.915,3.254,3.254,0,0,1,.465-1.8,1.7,1.7,0,0,1,1.545-.72,1.751,1.751,0,0,1,1.65.825,4.165,4.165,0,0,1,.48,2.115v2.55l-4.53,1.65a10.68,10.68,0,0,0-2.9,1.59,3.447,3.447,0,0,0-1.215,2.88A3.661,3.661,0,0,0-74.97-.8,4.15,4.15,0,0,0-72.045.24a4.716,4.716,0,0,0,2.79-.825,8.707,8.707,0,0,0,1.89-1.755A3.212,3.212,0,0,0-66.36-.405,2.9,2.9,0,0,0-64.365.3,4.262,4.262,0,0,0-62.46-.12a4.863,4.863,0,0,0,1.515-1.17l-.18-.66a3.223,3.223,0,0,1-.555.21,2.336,2.336,0,0,1-.645.09.778.778,0,0,1-.78-.465,2.979,2.979,0,0,1-.21-1.215Zm8.91.45a4.664,4.664,0,0,1,2.31-1.38,12.7,12.7,0,0,1,2.55-.24h.57v-3.24a1.448,1.448,0,0,0-.51-.36,1.953,1.953,0,0,0-.81-.15,2.73,2.73,0,0,0-2.175,1.005A15.053,15.053,0,0,0-54.4-11.76l.12-4.44h-.69l-5.37,1.65v.57l1.8,1.05V-2.31a1.078,1.078,0,0,1-.42,1.02,3.623,3.623,0,0,1-1.47.3V0h8.58V-.99a6.889,6.889,0,0,1-1.965-.375Q-54.4-1.62-54.4-2.55ZM-35.175.3A8.945,8.945,0,0,0-29.8-1.32a5.472,5.472,0,0,0,2.25-4.74,5.233,5.233,0,0,0-1.725-4.26A15.617,15.617,0,0,0-34-12.84a11.073,11.073,0,0,1-3.375-1.725,3.041,3.041,0,0,1-.975-2.415,3.025,3.025,0,0,1,.93-2.3,3.463,3.463,0,0,1,2.49-.885,4.538,4.538,0,0,1,3.42,1.335A6.925,6.925,0,0,1-29.8-15.12h1.11v-4.47a8.87,8.87,0,0,0-2.73-1.29,12.307,12.307,0,0,0-3.51-.48,7.273,7.273,0,0,0-5.055,1.74,5.739,5.739,0,0,0-1.935,4.47,5.128,5.128,0,0,0,1.59,4.05A12.641,12.641,0,0,0-36.1-8.76,13.48,13.48,0,0,1-32.31-6.855a3.158,3.158,0,0,1,1.1,2.565,3.086,3.086,0,0,1-1.08,2.46,4.261,4.261,0,0,1-2.88.93,4.715,4.715,0,0,1-3.69-1.62,9,9,0,0,1-1.98-4.29H-42.1l.27,5.13A8.456,8.456,0,0,0-39.06-.27,12.527,12.527,0,0,0-35.175.3Zm17.19-1.08q-1.8,0-2.625-2.28a16.5,16.5,0,0,1-.825-5.58,11.538,11.538,0,0,1,.8-4.7,2.588,2.588,0,0,1,2.445-1.755q1.8,0,2.61,2.265a16.646,16.646,0,0,1,.81,5.565,11.848,11.848,0,0,1-.78,4.71A2.563,2.563,0,0,1-17.985-.78ZM-18.135.3A7.314,7.314,0,0,0-12.57-2.085a8.694,8.694,0,0,0,2.235-6.2,7.839,7.839,0,0,0-2.145-5.73,7.446,7.446,0,0,0-5.565-2.19,7.293,7.293,0,0,0-5.565,2.4,8.748,8.748,0,0,0-2.235,6.21A7.775,7.775,0,0,0-23.7-1.86,7.5,7.5,0,0,0-18.135.3ZM2.655-2.31a1.1,1.1,0,0,1-.4,1.02,3.41,3.41,0,0,1-1.425.3V0h7.86V-.99a3.536,3.536,0,0,1-1.44-.3,1.078,1.078,0,0,1-.42-1.02v-9A5.354,5.354,0,0,0,5.73-14.97a4.054,4.054,0,0,0-3.2-1.23,5.637,5.637,0,0,0-3.24.915,11.729,11.729,0,0,0-2.31,2.025l.12-2.94h-.69l-5.37,1.65v.57l1.8,1.05V-2.31a1.078,1.078,0,0,1-.42,1.02,3.623,3.623,0,0,1-1.47.3V0h7.86V-.99a3.41,3.41,0,0,1-1.425-.3,1.1,1.1,0,0,1-.4-1.02V-12.45a10.264,10.264,0,0,1,1.575-.855A4.4,4.4,0,0,1,.345-13.68a2.161,2.161,0,0,1,1.77.66,3.022,3.022,0,0,1,.54,1.95ZM15.615.3A6.866,6.866,0,0,0,20.04-1.035,4.518,4.518,0,0,0,21.705-4.77,4.092,4.092,0,0,0,20.34-8.1a12.066,12.066,0,0,0-3.8-1.98,9.166,9.166,0,0,1-2.475-1.245,1.992,1.992,0,0,1-.765-1.635,2.081,2.081,0,0,1,.645-1.575,2.481,2.481,0,0,1,1.785-.615,3.167,3.167,0,0,1,2.55,1.14,6.342,6.342,0,0,1,1.32,2.76h1.02v-3.63a8.18,8.18,0,0,0-2.175-.96,9.743,9.743,0,0,0-2.715-.36,6.2,6.2,0,0,0-4.02,1.26,4.26,4.26,0,0,0-1.56,3.51,4.111,4.111,0,0,0,1.23,3.195,10.528,10.528,0,0,0,3.63,1.965A10.543,10.543,0,0,1,17.64-5.01,2.132,2.132,0,0,1,18.5-3.18a2.113,2.113,0,0,1-.825,1.83,3.35,3.35,0,0,1-2.025.6A3.673,3.673,0,0,1,12.78-2.055,7.533,7.533,0,0,1,11.145-5.31h-1.11l.18,4.11a7.991,7.991,0,0,0,2.31,1.08A10.594,10.594,0,0,0,15.615.3Zm13.65-21.36-.45,6.93h.96a28.919,28.919,0,0,1,2.37-4.59,3.008,3.008,0,0,1,2.61-1.26h1.59V-3.03q0,1.23-.6,1.515a7.518,7.518,0,0,1-2.1.465V0h9.78V-1.05a7.386,7.386,0,0,1-2.115-.465q-.585-.285-.585-1.515V-19.98h1.59a3.008,3.008,0,0,1,2.61,1.26,27.783,27.783,0,0,1,2.34,4.59h.96l-.45-6.93Zm26.04,10.23a4.664,4.664,0,0,1,2.31-1.38,12.7,12.7,0,0,1,2.55-.24h.57v-3.24a1.448,1.448,0,0,0-.51-.36,1.953,1.953,0,0,0-.81-.15,2.73,2.73,0,0,0-2.175,1.005,15.053,15.053,0,0,0-1.935,3.435l.12-4.44h-.69l-5.37,1.65v.57l1.8,1.05V-2.31a1.078,1.078,0,0,1-.42,1.02,3.623,3.623,0,0,1-1.47.3V0h8.58V-.99a6.889,6.889,0,0,1-1.965-.375q-.585-.255-.585-1.185ZM68-2.1a2.039,2.039,0,0,1-1.755-.75,3.143,3.143,0,0,1-.555-1.92,2.728,2.728,0,0,1,.555-1.875,3.81,3.81,0,0,1,1.485-.975l2.58-1.05v5.61a6.518,6.518,0,0,1-1.14.72A2.718,2.718,0,0,1,68-2.1Zm6.45-9.18a4.414,4.414,0,0,0-1.53-3.765,7.219,7.219,0,0,0-4.41-1.155,8.47,8.47,0,0,0-4.2.96,3.06,3.06,0,0,0-1.71,2.82,1.929,1.929,0,0,0,.36,1.215,2.029,2.029,0,0,0,.96.675l2.49-.33a8.248,8.248,0,0,1-.18-.945,7.145,7.145,0,0,1-.06-.915,3.254,3.254,0,0,1,.465-1.8,1.7,1.7,0,0,1,1.545-.72,1.751,1.751,0,0,1,1.65.825,4.165,4.165,0,0,1,.48,2.115v2.55L65.775-8.1a10.68,10.68,0,0,0-2.9,1.59,3.447,3.447,0,0,0-1.215,2.88A3.661,3.661,0,0,0,62.79-.8,4.15,4.15,0,0,0,65.715.24a4.716,4.716,0,0,0,2.79-.825A8.707,8.707,0,0,0,70.4-2.34,3.212,3.212,0,0,0,71.4-.405,2.9,2.9,0,0,0,73.4.3a4.262,4.262,0,0,0,1.9-.42,4.863,4.863,0,0,0,1.515-1.17l-.18-.66a3.223,3.223,0,0,1-.555.21,2.336,2.336,0,0,1-.645.09.778.778,0,0,1-.78-.465,2.979,2.979,0,0,1-.21-1.215Zm11.01-3.57a2.4,2.4,0,0,1,2.07.99,4.563,4.563,0,0,1,.72,2.73v7.92a3.4,3.4,0,0,1-1.155.72,3.969,3.969,0,0,1-1.4.24A3.46,3.46,0,0,1,82.56-4.08a8.749,8.749,0,0,1-1.095-4.56,8.516,8.516,0,0,1,1.05-4.5A3.28,3.28,0,0,1,85.455-14.85Zm2.79-5.64v5.4a3.968,3.968,0,0,0-1.38-.765,5.761,5.761,0,0,0-1.86-.285,7.176,7.176,0,0,0-5.43,2.355A9.223,9.223,0,0,0,77.355-7.2a8.336,8.336,0,0,0,1.68,5.445A5.389,5.389,0,0,0,83.415.3,5.022,5.022,0,0,0,86.16-.45a7.336,7.336,0,0,0,2.085-2.04L88.125.3h.78l5.46-1.08v-.9l-.75-.06q-.84-.06-1.02-.375a2.287,2.287,0,0,1-.18-1.065V-23.49h-.66l-5.31,1.44v.63Zm13.14,4.29h-.66l-5.28,1.65v.57l1.8,1.05V-2.31a1.078,1.078,0,0,1-.42,1.02,3.623,3.623,0,0,1-1.47.3V0h7.92V-.99a3.623,3.623,0,0,1-1.47-.3,1.078,1.078,0,0,1-.42-1.02ZM99.255-18a2.332,2.332,0,0,0,1.785-.72,2.344,2.344,0,0,0,.675-1.65,2.327,2.327,0,0,0-.675-1.665,2.357,2.357,0,0,0-1.785-.7,2.32,2.32,0,0,0-1.755.7,2.327,2.327,0,0,0-.675,1.665,2.344,2.344,0,0,0,.675,1.65A2.3,2.3,0,0,0,99.255-18Zm16.8,15.69a1.1,1.1,0,0,1-.4,1.02,3.41,3.41,0,0,1-1.425.3V0h7.86V-.99a3.536,3.536,0,0,1-1.44-.3,1.078,1.078,0,0,1-.42-1.02v-9a5.354,5.354,0,0,0-1.1-3.66,4.054,4.054,0,0,0-3.195-1.23,5.637,5.637,0,0,0-3.24.915,11.729,11.729,0,0,0-2.31,2.025l.12-2.94h-.69l-5.37,1.65v.57l1.8,1.05V-2.31a1.078,1.078,0,0,1-.42,1.02,3.623,3.623,0,0,1-1.47.3V0h7.86V-.99a3.41,3.41,0,0,1-1.425-.3,1.1,1.1,0,0,1-.4-1.02V-12.45a10.264,10.264,0,0,1,1.575-.855,4.4,4.4,0,0,1,1.785-.375,2.161,2.161,0,0,1,1.77.66,3.022,3.022,0,0,1,.54,1.95Zm13.74-3.36a7.393,7.393,0,0,0,4.6-1.38,4.46,4.46,0,0,0,1.815-3.75,3.829,3.829,0,0,0-.555-2.025,4.372,4.372,0,0,0-1.335-1.425l2.1.09h1.23V-15.9l-5.07.12q-.57-.15-1.2-.285a7.08,7.08,0,0,0-1.47-.135,7.38,7.38,0,0,0-4.665,1.455,4.821,4.821,0,0,0-1.875,4.035,4.373,4.373,0,0,0,.78,2.655,5.16,5.16,0,0,0,1.98,1.635,11.209,11.209,0,0,0-1.9,1.56,3.043,3.043,0,0,0-.885,2.22,2.912,2.912,0,0,0,.5,1.665A2.793,2.793,0,0,0,125.2.09a6.023,6.023,0,0,0-1.95,1.005,2.178,2.178,0,0,0-.87,1.815,3.027,3.027,0,0,0,1.92,2.775,11.566,11.566,0,0,0,5.19.975,11.827,11.827,0,0,0,6.24-1.53,4.822,4.822,0,0,0,2.52-4.35,3.668,3.668,0,0,0-1.335-3.045,6.228,6.228,0,0,0-3.945-1.065h-6.18a1.067,1.067,0,0,1-.765-.27.983.983,0,0,1-.285-.75,1.726,1.726,0,0,1,.3-.945,4.476,4.476,0,0,1,.72-.855,8.315,8.315,0,0,0,1.47.36A10.245,10.245,0,0,0,129.795-5.67Zm3.12,6.15a3.2,3.2,0,0,1,1.74.405,1.529,1.529,0,0,1,.63,1.4,2.576,2.576,0,0,1-1.695,2.46,9.2,9.2,0,0,1-3.885.78,5.667,5.667,0,0,1-3.345-.885,2.78,2.78,0,0,1-1.245-2.385,3.435,3.435,0,0,1,.135-.99,1.994,1.994,0,0,1,.435-.78Zm-2.94-7.14a2.085,2.085,0,0,1-1.965-1.35,7.307,7.307,0,0,1-.645-3.18,6.471,6.471,0,0,1,.555-2.865,1.883,1.883,0,0,1,1.815-1.125,2.037,2.037,0,0,1,1.92,1.335,7.278,7.278,0,0,1,.63,3.135,6.79,6.79,0,0,1-.54,2.925A1.832,1.832,0,0,1,129.975-6.66ZM-32.018,12.32a4.809,4.809,0,0,0-1.965.4,4.539,4.539,0,0,0-1.56,1.132,5.321,5.321,0,0,0-1.035,1.778,6.855,6.855,0,0,0-.375,2.332,5.986,5.986,0,0,0,.353,2.093,4.708,4.708,0,0,0,1.013,1.642A4.581,4.581,0,0,0-34,22.767a5.477,5.477,0,0,0,2.1.382,6.931,6.931,0,0,0,1.808-.21,6.054,6.054,0,0,0,1.448-.6l.195-2.67h-.45a4.423,4.423,0,0,1-1.073,2.288,2.669,2.669,0,0,1-1.928.7,2.839,2.839,0,0,1-1.507-.4,3.438,3.438,0,0,1-1.1-1.095,5.39,5.39,0,0,1-.682-1.628,8.206,8.206,0,0,1-.232-2,7.681,7.681,0,0,1,.21-1.823,4.729,4.729,0,0,1,.638-1.507,3.238,3.238,0,0,1,1.065-1.02,2.89,2.89,0,0,1,1.493-.375,2.685,2.685,0,0,1,1.875.653,3.419,3.419,0,0,1,.975,1.927h.405V13.2a5.336,5.336,0,0,0-1.463-.652A6.536,6.536,0,0,0-32.018,12.32Zm7.05,9.945a1.23,1.23,0,0,1-.975-.375,1.444,1.444,0,0,1-.33-.99,1.369,1.369,0,0,1,.308-.945,2.266,2.266,0,0,1,.878-.57l1.8-.735v2.82a5.185,5.185,0,0,1-.84.593A1.739,1.739,0,0,1-24.968,22.265Zm3.045-.93V17.36a2.227,2.227,0,0,0-.63-1.748,2.813,2.813,0,0,0-1.92-.562,4.418,4.418,0,0,0-1.058.12,2.771,2.771,0,0,0-.847.352,1.856,1.856,0,0,0-.57.563,1.367,1.367,0,0,0-.21.75.778.778,0,0,0,.585.825l.8-.12a3.229,3.229,0,0,1-.1-.78,1.55,1.55,0,0,1,.285-.953,1.084,1.084,0,0,1,.93-.382,1.158,1.158,0,0,1,1.065.5,2.378,2.378,0,0,1,.315,1.282v1.02l-2.16.81a7.572,7.572,0,0,0-.833.36,3.137,3.137,0,0,0-.675.458,1.928,1.928,0,0,0-.458.608,1.859,1.859,0,0,0-.165.81,1.851,1.851,0,0,0,.51,1.358,1.87,1.87,0,0,0,1.395.517,2.166,2.166,0,0,0,.743-.128,3.365,3.365,0,0,0,.66-.322,3.483,3.483,0,0,0,.563-.443q.255-.247.45-.472a1.748,1.748,0,0,0,.375,1,1.085,1.085,0,0,0,.87.368,1.686,1.686,0,0,0,.8-.195,1.768,1.768,0,0,0,.638-.6l-.075-.225q-.165.075-.337.135a1.066,1.066,0,0,1-.353.06.469.469,0,0,1-.458-.248A1.679,1.679,0,0,1-21.923,21.335Zm7.38-3.84V21.86a.645.645,0,0,1-.217.577,1.791,1.791,0,0,1-.818.173V23h3.42v-.39a1.791,1.791,0,0,1-.818-.173.645.645,0,0,1-.218-.577v-4.4a2.808,2.808,0,0,0-.495-1.815,1.869,1.869,0,0,0-1.53-.6,2.826,2.826,0,0,0-1.538.42,5.605,5.605,0,0,0-1.192,1l.06-1.425h-.18l-2.2.75v.165l.975.525v5.37a.645.645,0,0,1-.218.577,1.791,1.791,0,0,1-.817.173V23h3.42v-.39a1.791,1.791,0,0,1-.818-.173.645.645,0,0,1-.217-.577V16.835a4.8,4.8,0,0,1,.967-.645,2.409,2.409,0,0,1,1.1-.27,1.283,1.283,0,0,1,1,.368A1.788,1.788,0,0,1-14.543,17.495Zm5.625,4.77a1.23,1.23,0,0,1-.975-.375,1.444,1.444,0,0,1-.33-.99,1.369,1.369,0,0,1,.307-.945,2.266,2.266,0,0,1,.878-.57l1.8-.735v2.82a5.185,5.185,0,0,1-.84.593A1.739,1.739,0,0,1-8.918,22.265Zm3.045-.93V17.36a2.227,2.227,0,0,0-.63-1.748,2.813,2.813,0,0,0-1.92-.562,4.418,4.418,0,0,0-1.058.12,2.771,2.771,0,0,0-.847.352,1.856,1.856,0,0,0-.57.563,1.367,1.367,0,0,0-.21.75.778.778,0,0,0,.585.825l.8-.12a3.229,3.229,0,0,1-.1-.78,1.55,1.55,0,0,1,.285-.953,1.084,1.084,0,0,1,.93-.382,1.158,1.158,0,0,1,1.065.5,2.378,2.378,0,0,1,.315,1.282v1.02l-2.16.81a7.572,7.572,0,0,0-.832.36,3.137,3.137,0,0,0-.675.458,1.928,1.928,0,0,0-.458.608,1.859,1.859,0,0,0-.165.81,1.851,1.851,0,0,0,.51,1.358,1.87,1.87,0,0,0,1.395.517,2.166,2.166,0,0,0,.743-.128,3.366,3.366,0,0,0,.66-.322,3.483,3.483,0,0,0,.562-.443q.255-.247.45-.472a1.748,1.748,0,0,0,.375,1,1.085,1.085,0,0,0,.87.368,1.686,1.686,0,0,0,.8-.195,1.768,1.768,0,0,0,.637-.6L-4.6,22.13q-.165.075-.337.135a1.066,1.066,0,0,1-.353.06.469.469,0,0,1-.457-.248A1.679,1.679,0,0,1-5.873,21.335ZM-.578,15.47a1.578,1.578,0,0,1,1.26.585,2.432,2.432,0,0,1,.495,1.62v3.75a2.209,2.209,0,0,1-1.725.735,2.094,2.094,0,0,1-1.05-.255,2.29,2.29,0,0,1-.757-.7,3.145,3.145,0,0,1-.458-1.042,5.307,5.307,0,0,1-.15-1.29,5.5,5.5,0,0,1,.165-1.4,3.253,3.253,0,0,1,.48-1.073,2.31,2.31,0,0,1,.757-.69A1.978,1.978,0,0,1-.578,15.47Zm.78-3.3.975.525V15.65a2.293,2.293,0,0,0-.742-.435A2.886,2.886,0,0,0-.578,15.05a3.417,3.417,0,0,0-1.447.308,3.382,3.382,0,0,0-1.163.885,4.181,4.181,0,0,0-.773,1.4,5.7,5.7,0,0,0-.277,1.837,4.927,4.927,0,0,0,.21,1.47,3.506,3.506,0,0,0,.6,1.163,2.8,2.8,0,0,0,.945.765,2.779,2.779,0,0,0,1.26.278,2.352,2.352,0,0,0,1.38-.4,4.62,4.62,0,0,0,1.02-.983l-.06,1.38h.225l2.28-.555V22.28l-.39-.045a3.045,3.045,0,0,1-.4-.068.419.419,0,0,1-.21-.112.348.348,0,0,1-.082-.195,2.646,2.646,0,0,1-.015-.315V11.255h-.18L.2,12Zm6.645,10.1a1.23,1.23,0,0,1-.975-.375,1.444,1.444,0,0,1-.33-.99,1.369,1.369,0,0,1,.307-.945,2.266,2.266,0,0,1,.878-.57l1.8-.735v2.82a5.185,5.185,0,0,1-.84.593A1.739,1.739,0,0,1,6.847,22.265Zm3.045-.93V17.36a2.227,2.227,0,0,0-.63-1.748,2.813,2.813,0,0,0-1.92-.562,4.418,4.418,0,0,0-1.058.12,2.771,2.771,0,0,0-.847.352,1.856,1.856,0,0,0-.57.563,1.367,1.367,0,0,0-.21.75.778.778,0,0,0,.585.825l.8-.12a3.229,3.229,0,0,1-.105-.78,1.55,1.55,0,0,1,.285-.953,1.084,1.084,0,0,1,.93-.382,1.158,1.158,0,0,1,1.065.5,2.378,2.378,0,0,1,.315,1.282v1.02l-2.16.81a7.572,7.572,0,0,0-.832.36,3.137,3.137,0,0,0-.675.458,1.928,1.928,0,0,0-.458.608,1.836,1.836,0,0,0,1.74,2.685,2.166,2.166,0,0,0,.742-.128,3.366,3.366,0,0,0,.66-.322,3.483,3.483,0,0,0,.562-.443q.255-.247.45-.472a1.748,1.748,0,0,0,.375,1,1.085,1.085,0,0,0,.87.368,1.686,1.686,0,0,0,.8-.195,1.768,1.768,0,0,0,.637-.6l-.075-.225q-.165.075-.337.135a1.066,1.066,0,0,1-.352.06.469.469,0,0,1-.458-.248A1.679,1.679,0,0,1,9.892,21.335Zm7.575.2V13.94a1.93,1.93,0,0,1,.052-.5.565.565,0,0,1,.195-.3.944.944,0,0,1,.4-.165q.255-.053.675-.1V12.47h-4.05v.405q.42.045.675.1a.944.944,0,0,1,.4.165.565.565,0,0,1,.195.3,1.93,1.93,0,0,1,.052.5v7.59a1.93,1.93,0,0,1-.052.5.565.565,0,0,1-.195.3.944.944,0,0,1-.4.165q-.255.052-.675.1V23h4.05v-.405q-.42-.045-.675-.1a.944.944,0,0,1-.4-.165.565.565,0,0,1-.195-.3A1.93,1.93,0,0,1,17.468,21.53Zm7.845-4.035V21.86a.645.645,0,0,1-.217.577,1.791,1.791,0,0,1-.818.173V23H27.7v-.39a1.791,1.791,0,0,1-.818-.173.645.645,0,0,1-.218-.577v-4.4a2.808,2.808,0,0,0-.5-1.815,1.869,1.869,0,0,0-1.53-.6,2.826,2.826,0,0,0-1.538.42,5.605,5.605,0,0,0-1.192,1l.06-1.425h-.18l-2.2.75v.165l.975.525v5.37a.645.645,0,0,1-.218.577,1.791,1.791,0,0,1-.817.173V23h3.42v-.39a1.791,1.791,0,0,1-.818-.173.645.645,0,0,1-.217-.577V16.835a4.8,4.8,0,0,1,.967-.645,2.409,2.409,0,0,1,1.1-.27,1.283,1.283,0,0,1,1,.368A1.788,1.788,0,0,1,25.313,17.495Zm4.125,1.215a4.971,4.971,0,0,1,.15-1.252,3.51,3.51,0,0,1,.427-1.013,2.147,2.147,0,0,1,.675-.682,1.681,1.681,0,0,1,.908-.248,1.336,1.336,0,0,1,.6.12,1.038,1.038,0,0,1,.382.315,1.143,1.143,0,0,1,.195.45,2.6,2.6,0,0,1,.053.525q0,.21-.015.36a1.9,1.9,0,0,1-.045.27h.855a.837.837,0,0,0,.353-.368,1.178,1.178,0,0,0,.127-.548,1.364,1.364,0,0,0-.585-1.162,2.757,2.757,0,0,0-1.65-.428,3.356,3.356,0,0,0-1.507.33,3.409,3.409,0,0,0-1.14.908,4.137,4.137,0,0,0-.728,1.372,5.568,5.568,0,0,0-.255,1.71,4.749,4.749,0,0,0,.24,1.553,3.586,3.586,0,0,0,.667,1.192,2.912,2.912,0,0,0,1.035.765,3.232,3.232,0,0,0,1.328.27,2.686,2.686,0,0,0,1.747-.577,3.393,3.393,0,0,0,1.058-1.642l-.18-.09a3.067,3.067,0,0,1-.915.915,2.349,2.349,0,0,1-1.275.33,2.156,2.156,0,0,1-1.042-.247,2.4,2.4,0,0,1-.788-.69,3.185,3.185,0,0,1-.5-1.065A5.131,5.131,0,0,1,29.438,18.71Zm5.49,3.405a1.024,1.024,0,1,0,.3-.735A1,1,0,0,0,34.928,22.115Z" transform="translate(137.895 23.49)"/></svg>